<svg xmlns="http://www.w3.org/2000/svg" width="1420" height="245pt" viewBox="0 0 1065 244.8"><g class="graph" data-name="Test"><path fill="#fff" d="M0 244.8V0h1065v244.8z"/><g class="cluster" data-name="cluster_goal"><path fill="none" stroke="#b8860b" d="M12 88.8V12h178v76.8z"/><text x="97" y="-212.2" font-family="Times,serif" font-size="14" text-anchor="middle" transform="translate(4 240.8)">Goal</text></g><g class="cluster" data-name="cluster_actor"><path fill="none" stroke="#228b22" d="M198 160.8V12h336v148.8z"/><text x="362" y="-212.2" font-family="Times,serif" font-size="14" text-anchor="middle" transform="translate(4 240.8)">Actor</text></g><g class="cluster" data-name="cluster_impact"><path fill="none" stroke="#1e90ff" d="M542 160.8V12h225v148.8z"/><text x="650.5" y="-212.2" font-family="Times,serif" font-size="14" text-anchor="middle" transform="translate(4 240.8)">Impact</text></g><g class="cluster" data-name="cluster_deliverable"><path fill="none" stroke="#ff1493" d="M775 232.8V12h278v220.8z"/><text x="910" y="-212.2" font-family="Times,serif" font-size="14" text-anchor="middle" transform="translate(4 240.8)">Deliverable</text></g><g class="node" data-name="Goal1" pointer-events="visible"><path fill="#b8860b" stroke="#b8860b" d="M169.93 44.8H32.07c-6 0-12 6-12 12v12c0 6 6 12 12 12h137.86c6 0 12-6 12-12v-12c0-6-6-12-12-12"/><text x="97" y="-173.8" font-family="Times,serif" font-size="14" text-anchor="middle" transform="translate(4 240.8)">Grow Mobile Advertising</text></g><g class="node" data-name="Actor1" pointer-events="visible"><path fill="#228b22" stroke="#228b22" d="M514.19 44.8H337.81c-6 0-12 6-12 12v12c0 6 6 12 12 12h176.38c6 0 12-6 12-12v-12c0-6-6-12-12-12"/><text x="422" y="-173.8" font-family="Times,serif" font-size="14" text-anchor="middle" transform="translate(4 240.8)">Super-Fans with Mobile Devices</text></g><g stroke="#000" class="edge" data-name="Goal1-&gt;Actor1"><path fill="none" d="M182.25 62.8h131.82"/><path d="m314.03 59.3 10 3.5-10 3.5z"/></g><g class="node" data-name="Actor2" pointer-events="visible"><path fill="#228b22" stroke="#228b22" d="M513.73 116.8H412.27c-6 0-12 6-12 12v12c0 6 6 12 12 12h101.46c6 0 12-6 12-12v-12c0-6-6-12-12-12"/><text x="459" y="-101.8" font-family="Times,serif" font-size="14" text-anchor="middle" transform="translate(4 240.8)">Concert Organizers</text></g><g stroke="#000" class="edge" data-name="Goal1-&gt;Actor2"><path fill="none" d="M161.78 81.27c10.68 2.75 21.74 5.38 32.22 7.53 83.17 17.02 108.12 12.05 194.69 27.68"/><path d="m389.17 113.01 9.19 5.26-10.47 1.62z"/></g><g class="node" data-name="Actor3" pointer-events="visible"><path fill="#228b22" stroke="#228b22" d="M370.1 116.8H217.9c-6 0-12 6-12 12v12c0 6 6 12 12 12h152.2c6 0 12-6 12-12v-12c0-6-6-12-12-12"/><text x="290" y="-101.8" font-family="Times,serif" font-size="14" text-anchor="middle" transform="translate(4 240.8)">Artist Agents and Promotors</text></g><g stroke="#000" class="edge" data-name="Goal1-&gt;Actor3"><path fill="none" d="M149.2 81.28c26.12 9.48 58.61 21.26 86.18 31.26"/><path d="m236.45 109.2 8.2 6.7-10.59-.12z"/></g><g class="node" data-name="Impact1" pointer-events="visible"><path fill="#1e90ff" stroke="#1e90ff" d="M746.69 44.8H591.31c-6 0-12 6-12 12v12c0 6 6 12 12 12h155.38c6 0 12-6 12-12v-12c0-6-6-12-12-12"/><text x="665" y="-173.8" font-family="Times,serif" font-size="14" text-anchor="middle" transform="translate(4 240.8)">Come Back More Frequently</text></g><g stroke="#000" class="edge" data-name="Actor1-&gt;Impact1"><path fill="none" d="M526.62 62.8h40.84"/><path d="m567.38 59.3 10 3.5-10 3.5z"/></g><g class="node" data-name="Impact2" pointer-events="visible"><path fill="#1e90ff" stroke="#1e90ff" d="M747.32 116.8h-60.64c-6 0-12 6-12 12v12c0 6 6 12 12 12h60.64c6 0 12-6 12-12v-12c0-6-6-12-12-12"/><text x="713" y="-101.8" font-family="Times,serif" font-size="14" text-anchor="middle" transform="translate(4 240.8)">Stay Longer</text></g><g stroke="#000" class="edge" data-name="Actor1-&gt;Impact2"><path fill="none" d="M504.02 81.24c11.4 2.54 22.99 5.12 33.98 7.56 53.12 11.78 69.36 12.71 125.32 27.69"/><path d="m664.06 113.06 8.73 6-10.57.76z"/></g><g class="node" data-name="Impact3" pointer-events="visible"><path fill="#1e90ff" stroke="#1e90ff" d="M644.21 116.8h-82.42c-6 0-12 6-12 12v12c0 6 6 12 12 12h82.42c6 0 12-6 12-12v-12c0-6-6-12-12-12"/><text x="599" y="-101.8" font-family="Times,serif" font-size="14" text-anchor="middle" transform="translate(4 240.8)">View More Ads</text></g><g stroke="#000" class="edge" data-name="Actor1-&gt;Impact3"><path fill="none" d="M470.21 81.28c23.74 9.39 53.21 21.05 78.36 30.99"/><path d="m549.63 108.93 8.01 6.93-10.58-.42z"/></g><g class="node" data-name="Deliverable1" pointer-events="visible"><path fill="#ff1493" stroke="#ff1493" d="M863.11 44.8h-68.22c-6 0-12 6-12 12v12c0 6 6 12 12 12h68.22c6 0 12-6 12-12v-12c0-6-6-12-12-12"/><text x="825" y="-173.8" font-family="Times,serif" font-size="14" text-anchor="middle" transform="translate(4 240.8)">Push Updates</text></g><g stroke="#000" class="edge" data-name="Impact1-&gt;Deliverable1"><path fill="none" d="M759 62.8h12.13"/><path d="m771 59.3 10 3.5-10 3.5z"/></g><g class="node" data-name="Deliverable2" pointer-events="visible"><path fill="#ff1493" stroke="#ff1493" d="M867.47 116.8h-72.94c-6 0-12 6-12 12v12c0 6 6 12 12 12h72.94c6 0 12-6 12-12v-12c0-6-6-12-12-12"/><text x="827" y="-101.8" font-family="Times,serif" font-size="14" text-anchor="middle" transform="translate(4 240.8)">Special Offers</text></g><g stroke="#000" class="edge" data-name="Impact1-&gt;Deliverable2"><path fill="none" d="M709.46 81.28c21.44 9.27 47.99 20.74 70.79 30.59"/><path d="m781.59 108.64 7.79 7.18-10.56-.76z"/></g><g class="node" data-name="Deliverable3" pointer-events="visible"><path fill="#ff1493" stroke="#ff1493" d="M1033.29 188.8h-34.58c-6 0-12 6-12 12v12c0 6 6 12 12 12h34.58c6 0 12-6 12-12v-12c0-6-6-12-12-12"/><text x="1012" y="-29.8" font-family="Times,serif" font-size="14" text-anchor="middle" transform="translate(4 240.8)">Forums</text></g><g stroke="#000" class="edge" data-name="Impact2-&gt;Deliverable3"><path fill="none" d="M750.68 153.26c6.61 2.88 13.58 5.57 20.32 7.54 85.72 25.02 115.45 4.28 204.56 27.8"/><path d="m976.27 185.16 8.7 6.04-10.57.71z"/></g><g class="node" data-name="Deliverable4" pointer-events="visible"><path fill="#ff1493" stroke="#ff1493" d="M957 188.8h-30c-6 0-12 6-12 12v12c0 6 6 12 12 12h30c6 0 12-6 12-12v-12c0-6-6-12-12-12"/><text x="938" y="-29.8" font-family="Times,serif" font-size="14" text-anchor="middle" transform="translate(4 240.8)">Chats</text></g><g stroke="#000" class="edge" data-name="Impact2-&gt;Deliverable4"><path fill="none" d="M751.68 153.27c6.32 2.78 12.94 5.42 19.32 7.53 54.89 18.13 74.64 9.67 132.84 27.76"/><path d="m904.9 185.22 8.42 6.43-10.59.23z"/></g><g class="node" data-name="Deliverable5" pointer-events="visible"><path fill="#ff1493" stroke="#ff1493" d="M884.59 188.8h-89.18c-6 0-12 6-12 12v12c0 6 6 12 12 12h89.18c6 0 12-6 12-12v-12c0-6-6-12-12-12"/><text x="836" y="-29.8" font-family="Times,serif" font-size="14" text-anchor="middle" transform="translate(4 240.8)">Better Pagination</text></g><g stroke="#000" class="edge" data-name="Impact3-&gt;Deliverable5"><path fill="none" d="M644.75 153.21c7.04 2.69 14.31 5.33 21.25 7.59 34.49 11.26 73.56 21.57 105.92 29.48"/><path d="m772.69 186.87 8.9 5.75-10.54 1.05z"/></g></g></svg>